<svg aria-hidden="true" style="position:absolute;width:0;height:0" xmlns="http://www.w3.org/2000/svg" overflow="hidden">
  <defs>
             <symbol id="icon-close-mobile" viewBox="0 0 32 32">
      <path d="M23.736 10.304 22.232 8.8l-5.968 5.96-5.96-5.96L8.8 10.304l5.96 5.96L8.8 22.24l1.504 1.504 5.96-5.968 5.968 5.968 1.504-1.504-5.968-5.968 5.968-5.96z"/>
    </symbol>
    <symbol id="icon-logo-telegram" viewBox="0 0 32 32">
<path fill="transparent"  d="M12.408 28.188c-0.865 0-0.717-0.327-1.016-1.148l-2.54-8.362 19.556-11.602-16 21.112z"></path>
<path fill="transparent"  d="M12.408 28.188c0.667 0 0.962-0.305 1.333-0.667l3.556-3.458-4.436-2.674-0.453 6.799z"></path>
<path fill="transparent"  d="M12.861 21.391l10.747 7.94c1.228 0.676 2.111 0.326 2.417-1.139l4.375-20.615c0.448-1.796-0.684-2.61-1.858-2.078l-25.688 9.906c-1.754 0.703-1.742 1.682-0.32 2.117l6.592 2.058 15.261-9.628c0.721-0.437 1.382-0.202 0.84 0.28l-12.366 11.159z"></path>
<path fill="#ffffff" d="M24.687 30.163c-0.402 0-0.843-0.132-1.32-0.395l-10.803-7.976c-0.123-0.093-0.202-0.238-0.202-0.403 0-0.147 0.063-0.279 0.164-0.371l12.796-11.515c0.088-0.080 0.206-0.128 0.334-0.128 0.276 0 0.5 0.224 0.5 0.5 0 0.147-0.064 0.28-0.165 0.371l-0 0-12.34 11.106 10.254 7.576c0.271 0.145 0.729 0.329 1.055 0.178 0.332-0.152 0.496-0.637 0.576-1.017l4.375-20.617c0.17-0.681 0.088-1.229-0.215-1.481-0.231-0.192-0.575-0.206-0.947-0.038l-25.716 9.918c-0.789 0.317-1.037 0.643-1.033 0.751 0.003 0.071 0.173 0.267 0.68 0.422l6.375 1.99 6.999-4.416c0.071-0.041 0.157-0.066 0.248-0.066 0.276 0 0.5 0.224 0.5 0.5 0 0.17-0.084 0.319-0.214 0.41l-0.002 0.001-7.194 4.539c-0.076 0.048-0.169 0.077-0.268 0.077-0.053 0-0.104-0.008-0.152-0.023l0.004 0.001-6.592-2.058c-1.17-0.358-1.37-0.99-1.384-1.335-0.020-0.473 0.253-1.157 1.667-1.723l25.695-9.908c0.697-0.318 1.445-0.25 1.974 0.191 0.613 0.511 0.813 1.413 0.549 2.474l-4.371 20.598c-0.184 0.878-0.566 1.457-1.137 1.719-0.199 0.093-0.433 0.148-0.679 0.148-0.004 0-0.009-0-0.013-0h0.001z"></path>
<path fill="#ffffff" d="M24.687 30.163c-0.402 0-0.843-0.132-1.32-0.395l-6.72-4.959c-0.13-0.092-0.214-0.241-0.214-0.41 0-0.276 0.224-0.5 0.5-0.5 0.117 0 0.224 0.040 0.309 0.107l-0.001-0.001 6.664 4.923c0.271 0.145 0.729 0.329 1.055 0.178 0.332-0.152 0.496-0.637 0.576-1.017l4.375-20.617c0.17-0.681 0.088-1.229-0.215-1.481-0.231-0.192-0.575-0.206-0.947-0.038l-25.716 9.918c-0.789 0.317-1.037 0.643-1.033 0.751 0.003 0.071 0.173 0.267 0.68 0.422l6.594 2.058c0.158 0.051 0.28 0.173 0.329 0.328l0.001 0.004 2.267 7.461c0.061 0.167 0.108 0.333 0.149 0.477 0.032 0.114 0.072 0.256 0.099 0.298-0.004-0.005 0.076 0.019 0.289 0.020 0.447 0 0.617-0.167 0.957-0.498l1.66-1.614c0.090-0.085 0.211-0.138 0.345-0.138 0.276 0 0.5 0.224 0.5 0.5 0 0.139-0.057 0.264-0.148 0.355l-0 0-1.632 1.585c-0.402 0.393-0.828 0.809-1.682 0.809-0.98 0-1.178-0.434-1.351-1.046-0.035-0.124-0.075-0.267-0.135-0.432l-2.198-7.233-6.339-1.979c-1.17-0.358-1.37-0.99-1.384-1.335-0.020-0.473 0.253-1.157 1.667-1.723l25.695-9.908c0.697-0.318 1.445-0.25 1.974 0.191 0.613 0.511 0.813 1.413 0.549 2.474l-4.371 20.598c-0.184 0.878-0.566 1.457-1.137 1.719-0.199 0.093-0.433 0.148-0.679 0.148-0.004 0-0.009-0-0.013-0h0.001z"></path>
<path fill="#ffffff" d="M18.5 14c0 0.275-0.225 0.5-0.5 0.5s-0.499-0.224-0.5-0.5v-0c0-0.275 0.225-0.5 0.5-0.5s0.5 0.225 0.5 0.5z"></path>
</symbol>
     </defs>
</svg>
